<svg class="card" version="1.1" id="el_f-_Log2rsRk" xmlns="http://www.w3.org/2000/svg"
                            xmlns:xlink="http://www.w3.org/1999/xlink" x="0px" y="0px" width="200px" height="220px"
                            viewBox="0 0 59 93" enable-background="new 0 0 59.639 93.694" xml:space="preserve">
                            <style>
                                @-webkit-keyframes el_tXHPk9DPVFw_pwi_Ic8je_Animation {
                                    0% {
                                        -webkit-transform: scale(0.5, 0.5);
                                        transform: scale(0.5, 0.5);
                                    }

                                    4.44% {
                                        -webkit-transform: scale(1, 1);
                                        transform: scale(1, 1);
                                    }

                                    8.89% {
                                        -webkit-transform: scale(0.5, 0.5);
                                        transform: scale(0.5, 0.5);
                                    }

                                    13.33% {
                                        -webkit-transform: scale(1, 1);
                                        transform: scale(1, 1);
                                    }

                                    100% {
                                        -webkit-transform: scale(1, 1);
                                        transform: scale(1, 1);
                                    }
                                }

                                @keyframes el_tXHPk9DPVFw_pwi_Ic8je_Animation {
                                    0% {
                                        -webkit-transform: scale(0.5, 0.5);
                                        transform: scale(0.5, 0.5);
                                    }

                                    4.44% {
                                        -webkit-transform: scale(1, 1);
                                        transform: scale(1, 1);
                                    }

                                    8.89% {
                                        -webkit-transform: scale(0.5, 0.5);
                                        transform: scale(0.5, 0.5);
                                    }

                                    13.33% {
                                        -webkit-transform: scale(1, 1);
                                        transform: scale(1, 1);
                                    }

                                    100% {
                                        -webkit-transform: scale(1, 1);
                                        transform: scale(1, 1);
                                    }
                                }

                                @-webkit-keyframes el_B-D5K2F54XL_AezCq6m2Z_Animation {
                                    0% {
                                        -webkit-transform: scale(1, 1);
                                        transform: scale(1, 1);
                                    }

                                    6.67% {
                                        -webkit-transform: scale(0, 0);
                                        transform: scale(0, 0);
                                    }

                                    13.33% {
                                        -webkit-transform: scale(1, 1);
                                        transform: scale(1, 1);
                                    }

                                    100% {
                                        -webkit-transform: scale(1, 1);
                                        transform: scale(1, 1);
                                    }
                                }

                                @keyframes el_B-D5K2F54XL_AezCq6m2Z_Animation {
                                    0% {
                                        -webkit-transform: scale(1, 1);
                                        transform: scale(1, 1);
                                    }

                                    6.67% {
                                        -webkit-transform: scale(0, 0);
                                        transform: scale(0, 0);
                                    }

                                    13.33% {
                                        -webkit-transform: scale(1, 1);
                                        transform: scale(1, 1);
                                    }

                                    100% {
                                        -webkit-transform: scale(1, 1);
                                        transform: scale(1, 1);
                                    }
                                }

                                @-webkit-keyframes el_PIxdt7Rww66_6HDnItjBj_Animation {
                                    0% {
                                        -webkit-transform: scale(1, 1);
                                        transform: scale(1, 1);
                                    }

                                    6.67% {
                                        -webkit-transform: scale(0, 0);
                                        transform: scale(0, 0);
                                    }

                                    13.33% {
                                        -webkit-transform: scale(1, 1);
                                        transform: scale(1, 1);
                                    }

                                    100% {
                                        -webkit-transform: scale(1, 1);
                                        transform: scale(1, 1);
                                    }
                                }

                                @keyframes el_PIxdt7Rww66_6HDnItjBj_Animation {
                                    0% {
                                        -webkit-transform: scale(1, 1);
                                        transform: scale(1, 1);
                                    }

                                    6.67% {
                                        -webkit-transform: scale(0, 0);
                                        transform: scale(0, 0);
                                    }

                                    13.33% {
                                        -webkit-transform: scale(1, 1);
                                        transform: scale(1, 1);
                                    }

                                    100% {
                                        -webkit-transform: scale(1, 1);
                                        transform: scale(1, 1);
                                    }
                                }

                                #el_f-_Log2rsRk * {
                                    -webkit-animation-duration: 3s;
                                    animation-duration: 3s;
                                    -webkit-animation-play-state: running;
                                    animation-play-state: running;
                                    -webkit-animation-timing-function: cubic-bezier(0, 0, 1, 1);
                                    animation-timing-function: cubic-bezier(0, 0, 1, 1);
                                }

                                #el_9ZVDgsW7jFL {
                                    fill: #BBE1F2;
                                }

                                #el_S5soKPG05PA {
                                    fill: #3F464A;
                                }

                                #el_H2U5_ST3OtS {
                                    fill: #D99762;
                                }

                                #el_Q1EXw97Pspd {
                                    fill: #F04989;
                                }

                                #el_ujR7ng6slCT {
                                    fill: #D99762;
                                }

                                #el_eXaAe4eoG5a {
                                    fill: #D99762;
                                }

                                #el_b4befdXtLEW {
                                    fill: #B87946;
                                }

                                #el_1nLT3tWh2_G {
                                    fill: #B87946;
                                }

                                #el_tXHPk9DPVFw {
                                    fill: #FFFFFF;
                                }

                                #el_PIxdt7Rww66 {
                                    fill: #383737;
                                }

                                #el_B-D5K2F54XL {
                                    fill: #383737;
                                }

                                #el_yVUr4RKa6jP {
                                    fill: none;
                                    stroke: #3F464A;
                                    stroke-width: 1.9199;
                                }

                                #el_OJelvcBXaEB {
                                    fill: none;
                                    stroke: #3F464A;
                                    stroke-width: 1.9199;
                                }

                                #el_jlLOmNOVQvJ {
                                    opacity: 0.2;
                                    fill: #F04989;
                                }

                                #el_q2eUsCrIfWA {
                                    opacity: 0.2;
                                    fill: #F04989;
                                }

                                #el_UtaOMqBKPUa {
                                    fill: #3F464A;
                                }

                                #el_ZA_RKRQS-jG {
                                    fill: #FFFFFF;
                                }

                                #el_q0Qx1dyBvTj {
                                    fill: #FFFFFF;
                                }

                                #el_NyFUeJl0a0J {
                                    opacity: 0.5;
                                    fill: #FFFFFF;
                                }

                                #el_v7lRCPEodR6 {
                                    fill: #3F85AB;
                                }

                                #el_RhGN8S0bIof {
                                    fill: #3F85AB;
                                }

                                #el_4ksaR4VG7h6 {
                                    fill: #3F85AB;
                                }

                                #el_tRkl0wtdass {
                                    fill: #29698C;
                                }

                                #el_yXZgwa4DPce {
                                    fill: #29698C;
                                }

                                #el_cAb4sjpOm46 {
                                    fill: #3F85AB;
                                }

                                #el_TH2jvmQte6s {
                                    fill: #29698C;
                                }

                                #el_X9Q0Vuszv_O {
                                    fill: #3F85AB;
                                }

                                #el_PIxdt7Rww66_6HDnItjBj {
                                    -webkit-transform-origin: 50% 50%;
                                    transform-origin: 50% 50%;
                                    transform-box: fill-box;
                                    -webkit-transform: scale(1, 1);
                                    transform: scale(1, 1);
                                }

                                #el_f-_Log2rsRk:hover #el_PIxdt7Rww66_6HDnItjBj {
                                    -webkit-animation-name: el_PIxdt7Rww66_6HDnItjBj_Animation;
                                    animation-name: el_PIxdt7Rww66_6HDnItjBj_Animation;
                                }

                                #el_B-D5K2F54XL_AezCq6m2Z {
                                    -webkit-transform-origin: 50% 50%;
                                    transform-origin: 50% 50%;
                                    transform-box: fill-box;
                                    -webkit-transform: scale(1, 1);
                                    transform: scale(1, 1);
                                }

                                #el_f-_Log2rsRk:hover #el_B-D5K2F54XL_AezCq6m2Z {
                                    -webkit-animation-name: el_B-D5K2F54XL_AezCq6m2Z_Animation;
                                    animation-name: el_B-D5K2F54XL_AezCq6m2Z_Animation;
                                }

                                #el_tXHPk9DPVFw_pwi_Ic8je {
                                    -webkit-transform-origin: 50% 50%;
                                    transform-origin: 50% 50%;
                                    transform-box: fill-box;
                                    -webkit-transform: scale(1, 1);
                                    transform: scale(1, 1);
                                }

                                #el_f-_Log2rsRk:hover #el_tXHPk9DPVFw_pwi_Ic8je {
                                    -webkit-animation-name: el_tXHPk9DPVFw_pwi_Ic8je_Animation;
                                    animation-name: el_tXHPk9DPVFw_pwi_Ic8je_Animation;
                                }
                            </style>
                            <ellipse fill-rule="evenodd" clip-rule="evenodd" cx="29.708" cy="47.073" rx="28.85" ry="46.154"
                                id="el_9ZVDgsW7jFL" />
                            <g id="el_00ZEPVZb1wS">
                                <path id="el_S5soKPG05PA" fill-rule="evenodd" clip-rule="evenodd" d="M7.072,48.543&#10;&#9;&#9;c-3.137,10.31,0.453,15.232,4.559,20.646c0.434,0.571,2.065,4.98-2.097,6.843c0.551,5.387,12.085,12.768,27.332,7.496&#10;&#9;&#9;c15.881-5.49,19.807-24.899,12.746-35.417C43.087,38.395,21.101,38.856,7.072,48.543z" />
                                <path id="el_H2U5_ST3OtS" fill-rule="evenodd" clip-rule="evenodd" d="M29.656,77.571c6.748,0,12.447,3.645,14.27,8.639&#10;&#9;&#9;H15.387C17.21,81.215,22.908,77.571,29.656,77.571z" />
                                <path id="el_Q1EXw97Pspd" fill-rule="evenodd" clip-rule="evenodd" d="M26.345,77.872l-5.527,8.338h8.838h8.84l-5.527-8.338&#10;&#9;&#9;c-1.065-0.196-2.174-0.301-3.313-0.301S27.41,77.675,26.345,77.872z" />
                                <path id="el_ujR7ng6slCT" fill-rule="evenodd" clip-rule="evenodd" d="M29.656,64.72L29.656,64.72&#10;&#9;&#9;c1.822,0,3.312,1.459,3.312,3.241v9.743c0,1.782-1.489,3.24-3.312,3.24l0,0c-1.82,0-3.311-1.458-3.311-3.24v-9.743&#10;&#9;&#9;C26.345,66.179,27.835,64.72,29.656,64.72z" />
                                <path id="el_eXaAe4eoG5a" fill-rule="evenodd" clip-rule="evenodd" d="M29.656,34.124&#10;&#9;&#9;c12.406-0.611,17.723,9.342,17.723,20.866s-9.27,20.866-17.723,20.866S11.935,66.513,11.935,54.99S17.25,34.736,29.656,34.124z" />
                                <path id="el_b4befdXtLEW" fill-rule="evenodd" clip-rule="evenodd" d="M28.243,63.686c3.252,0.524,4.575-1.55,3.832-3.337&#10;&#9;&#9;C33.619,63.095,32.175,65.031,28.243,63.686z" />
                                <path id="el_1nLT3tWh2_G" fill-rule="evenodd" clip-rule="evenodd" d="M21.134,65.525c1.811,0.238,5.075-0.266,7.338,0.09&#10;&#9;&#9;c0.54,0.084,1.212,0.318,1.764,0.32c0.525,0.004,1.145-0.174,1.656-0.251c2.047-0.306,5.266,0.005,6.842-0.228&#10;&#9;&#9;C36.674,72.183,23.899,72.81,21.134,65.525z" />
                                <g id="el_tXHPk9DPVFw_pwi_Ic8je" data-animator-group="true" data-animator-type="2">
                                    <path id="el_tXHPk9DPVFw" fill-rule="evenodd" clip-rule="evenodd" d="M22.326,66.187c2.13-0.1,5.217,0.443,7.837,0.453&#10;&#9;&#9;c2.522,0.009,5.79-0.65,7.614-0.504C35.314,70.086,25.563,70.451,22.326,66.187z" />
                                </g>
                                <g id="el_PlKgMzLB0e1">

                                    .shrink:hover
                                    {
                                    -webkit-transform: scale(0.8);
                                    -ms-transform: scale(0.8);
                                    transform: scale(0.8);
                                    }
                                    <g id="el_PIxdt7Rww66_6HDnItjBj" data-animator-group="true" data-animator-type="2">
                                        <ellipse id="el_PIxdt7Rww66" fill-rule="evenodd" clip-rule="evenodd" cx="36.066"
                                            cy="55.182" rx="1.14" ry="1.867" />
                                    </g>
                                    <g id="el_B-D5K2F54XL_AezCq6m2Z" data-animator-group="true" data-animator-type="2">
                                        <ellipse id="el_B-D5K2F54XL" fill-rule="evenodd" clip-rule="evenodd" cx="23.248"
                                            cy="55.182" rx="1.14" ry="1.867" />
                                    </g>
                                </g>
                                <g id="el_9835X7-Oyse">

                                    <path display="none" fill-rule="evenodd" clip-rule="evenodd" stroke-linecap="round"
                                        stroke-linejoin="round" stroke-miterlimit="22.9256" d="&#10;&#9;&#9;&#9;M20.833,50.455c1.476-0.188,3.441-0.285,5.161-0.055"
                                        id="el_yVUr4RKa6jP" />

                                    <path id="el_OJelvcBXaEB" fill-rule="evenodd" clip-rule="evenodd" stroke-linecap="round"
                                        stroke-linejoin="round" stroke-miterlimit="22.9256" d="&#10;&#9;&#9;&#9;M38.481,50.455c-1.478-0.188-3.442-0.285-5.161-0.055" />
                                </g>
                                <g id="el_WAwWxdwLkam">

                                    <ellipse id="el_jlLOmNOVQvJ" fill-rule="evenodd" clip-rule="evenodd" cx="37.527" cy="60"
                                        rx="1.997" ry="1.343" />

                                    <ellipse id="el_q2eUsCrIfWA" fill-rule="evenodd" clip-rule="evenodd" cx="21.786" cy="60"
                                        rx="1.997" ry="1.343" />
                                </g>
                                <path id="el_UtaOMqBKPUa" fill-rule="evenodd" clip-rule="evenodd" d="M38.886,40.933c-6.23-1.973-9.249,14.353-21.239,15.514&#10;&#9;&#9;c-11.99,1.162-18.763-15.212-7.149-25.94c11.613-10.729,28.261-0.046,30.311,5.968c2.867-3.208,7.881-1.413,10.184,3.438&#10;&#9;&#9;c2.373,5.005,0.775,15.91-3.24,15.971C41.144,55.982,46.619,43.381,38.886,40.933z" />
                                <path id="el_ZA_RKRQS-jG" fill-rule="evenodd" clip-rule="evenodd" d="M48.689,63.115c0.658,0,1.195-0.526,1.195-1.17&#10;&#9;&#9;c0-0.646-0.537-1.171-1.195-1.171s-1.195,0.525-1.195,1.171C47.494,62.588,48.031,63.115,48.689,63.115z" />
                                <path id="el_q0Qx1dyBvTj" fill-rule="evenodd" clip-rule="evenodd" d="M10.625,63.115c0.658,0,1.195-0.526,1.195-1.17&#10;&#9;&#9;c0-0.646-0.537-1.171-1.195-1.171c-0.659,0-1.195,0.525-1.195,1.171C9.43,62.588,9.966,63.115,10.625,63.115z" />
                                <path id="el_NyFUeJl0a0J" fill-rule="evenodd" clip-rule="evenodd" d="M36.263,36.617&#10;&#9;&#9;c-9.252,1.431-13.02,22.451-26.023,13.945C19.235,52.902,28.91,33.188,36.263,36.617z" />
                                <g id="el_C3mpUsETNLf">
                                    <path id="el_v7lRCPEodR6" fill-rule="evenodd" clip-rule="evenodd" d="M11.005,51.401&#10;&#9;&#9;&#9;c-0.305-2.864-0.415-7.511,1.946-11.483c2.377-4,7.201-7.271,16.708-7.271v1.515c-8.804,0-13.209,2.924-15.335,6.502&#10;&#9;&#9;&#9;c-2.143,3.604-2.032,7.92-1.748,10.59L11.005,51.401z" />
                                    <path id="el_RhGN8S0bIof" fill-rule="evenodd" clip-rule="evenodd" d="M46.742,51.253c0.283-2.67,0.395-6.985-1.748-10.59&#10;&#9;&#9;&#9;c-2.125-3.578-6.531-6.502-15.334-6.502v-1.515c9.507,0,14.33,3.271,16.707,7.271c2.361,3.973,2.252,8.619,1.947,11.483&#10;&#9;&#9;&#9;L46.742,51.253z" />
                                    <path id="el_4ksaR4VG7h6" fill-rule="evenodd" clip-rule="evenodd" d="M47.298,59.427c-0.215,1.506-0.703,4.817-3.15,7.793&#10;&#9;&#9;&#9;c-2.443,2.971-6.807,5.57-14.721,5.611l-0.006-1.509c7.314-0.038,11.291-2.372,13.482-5.037c2.188-2.659,2.633-5.685,2.83-7.06&#10;&#9;&#9;&#9;L47.298,59.427z" />
                                    <path id="el_tRkl0wtdass" fill-rule="evenodd" clip-rule="evenodd" d="M28.555,70.242h3.169&#10;&#9;&#9;&#9;c0.865,0,1.574,0.693,1.574,1.54l0,0c0,0.849-0.709,1.542-1.574,1.542h-3.169c-0.866,0-1.575-0.693-1.575-1.542l0,0&#10;&#9;&#9;&#9;C26.98,70.935,27.689,70.242,28.555,70.242z" />
                                    <g id="el_XKKrelrfdt4">
                                        <g id="el_xu-xsef4XDJ">
                                            <polygon fill-rule="evenodd" clip-rule="evenodd" points="12.549,50.671 10.88,50.867 12.245,61.509 &#10;&#9;&#9;&#9;&#9;&#9;13.915,61.314 &#9;&#9;&#9;&#9;"
                                                id="el_yXZgwa4DPce" />
                                            <path fill-rule="evenodd" clip-rule="evenodd" d="M12.245,61.509c-2.865,0.336-5.494-1.773-5.87-4.713&#10;&#9;&#9;&#9;&#9;&#9;c-0.377-2.938,1.64-5.594,4.505-5.93L12.245,61.509z"
                                                id="el_cAb4sjpOm46" />
                                        </g>
                                        <g id="el_TDnKKzb4H7J">
                                            <polygon fill-rule="evenodd" clip-rule="evenodd" points="46.763,50.671 48.433,50.867 47.068,61.509 &#10;&#9;&#9;&#9;&#9;&#9;45.4,61.314 &#9;&#9;&#9;&#9;"
                                                id="el_TH2jvmQte6s" />
                                            <path fill-rule="evenodd" clip-rule="evenodd" d="M47.068,61.509c2.865,0.336,5.494-1.773,5.871-4.713&#10;&#9;&#9;&#9;&#9;&#9;c0.377-2.938-1.641-5.594-4.506-5.93L47.068,61.509z"
                                                id="el_X9Q0Vuszv_O" />
                                        </g>
                                    </g>
                                </g>
                            </g>
                        </svg>