<svg version="1.1" class="card" id="el_Hy7xr2xJAim" xmlns="http://www.w3.org/2000/svg" xmlns:xlink="http://www.w3.org/1999/xlink" width="200px" height="220px" x="0px" y="0px" enable-background="new 0 0 58.537 93.433" xml:space="preserve" viewBox="0 0 58 93">
                            <style>@-webkit-keyframes el_r1-WrhlyAoQ_Byxf-1AjX_Animation{0%{-webkit-transform: translate(29.644001007080078px, 62.3152961730957px) scale(1, 1) translate(-29.644001007080078px, -62.3152961730957px);transform: translate(29.644001007080078px, 62.3152961730957px) scale(1, 1) translate(-29.644001007080078px, -62.3152961730957px);}3.33%{-webkit-transform: translate(29.644001007080078px, 62.3152961730957px) scale(0.5, 0.5) translate(-29.644001007080078px, -62.3152961730957px);transform: translate(29.644001007080078px, 62.3152961730957px) scale(0.5, 0.5) translate(-29.644001007080078px, -62.3152961730957px);}6.67%{-webkit-transform: translate(29.644001007080078px, 62.3152961730957px) scale(1, 1) translate(-29.644001007080078px, -62.3152961730957px);transform: translate(29.644001007080078px, 62.3152961730957px) scale(1, 1) translate(-29.644001007080078px, -62.3152961730957px);}10%{-webkit-transform: translate(29.644001007080078px, 62.3152961730957px) scale(0.5, 0.5) translate(-29.644001007080078px, -62.3152961730957px);transform: translate(29.644001007080078px, 62.3152961730957px) scale(0.5, 0.5) translate(-29.644001007080078px, -62.3152961730957px);}13.33%{-webkit-transform: translate(29.644001007080078px, 62.3152961730957px) scale(1, 1) translate(-29.644001007080078px, -62.3152961730957px);transform: translate(29.644001007080078px, 62.3152961730957px) scale(1, 1) translate(-29.644001007080078px, -62.3152961730957px);}100%{-webkit-transform: translate(29.644001007080078px, 62.3152961730957px) scale(1, 1) translate(-29.644001007080078px, -62.3152961730957px);transform: translate(29.644001007080078px, 62.3152961730957px) scale(1, 1) translate(-29.644001007080078px, -62.3152961730957px);}}@keyframes el_r1-WrhlyAoQ_Byxf-1AjX_Animation{0%{-webkit-transform: translate(29.644001007080078px, 62.3152961730957px) scale(1, 1) translate(-29.644001007080078px, -62.3152961730957px);transform: translate(29.644001007080078px, 62.3152961730957px) scale(1, 1) translate(-29.644001007080078px, -62.3152961730957px);}3.33%{-webkit-transform: translate(29.644001007080078px, 62.3152961730957px) scale(0.5, 0.5) translate(-29.644001007080078px, -62.3152961730957px);transform: translate(29.644001007080078px, 62.3152961730957px) scale(0.5, 0.5) translate(-29.644001007080078px, -62.3152961730957px);}6.67%{-webkit-transform: translate(29.644001007080078px, 62.3152961730957px) scale(1, 1) translate(-29.644001007080078px, -62.3152961730957px);transform: translate(29.644001007080078px, 62.3152961730957px) scale(1, 1) translate(-29.644001007080078px, -62.3152961730957px);}10%{-webkit-transform: translate(29.644001007080078px, 62.3152961730957px) scale(0.5, 0.5) translate(-29.644001007080078px, -62.3152961730957px);transform: translate(29.644001007080078px, 62.3152961730957px) scale(0.5, 0.5) translate(-29.644001007080078px, -62.3152961730957px);}13.33%{-webkit-transform: translate(29.644001007080078px, 62.3152961730957px) scale(1, 1) translate(-29.644001007080078px, -62.3152961730957px);transform: translate(29.644001007080078px, 62.3152961730957px) scale(1, 1) translate(-29.644001007080078px, -62.3152961730957px);}100%{-webkit-transform: translate(29.644001007080078px, 62.3152961730957px) scale(1, 1) translate(-29.644001007080078px, -62.3152961730957px);transform: translate(29.644001007080078px, 62.3152961730957px) scale(1, 1) translate(-29.644001007080078px, -62.3152961730957px);}}@-webkit-keyframes el_HkmbS3lJ0jm_SkEAg1CjQ_Animation{0%{-webkit-transform: translate(35.840999603271484px, 50.731000900268555px) scale(1, 1) translate(-35.840999603271484px, -50.731000900268555px);transform: translate(35.840999603271484px, 50.731000900268555px) scale(1, 1) translate(-35.840999603271484px, -50.731000900268555px);}6.67%{-webkit-transform: translate(35.840999603271484px, 50.731000900268555px) scale(0.5, 0.5) translate(-35.840999603271484px, -50.731000900268555px);transform: translate(35.840999603271484px, 50.731000900268555px) scale(0.5, 0.5) translate(-35.840999603271484px, -50.731000900268555px);}13.33%{-webkit-transform: translate(35.840999603271484px, 50.731000900268555px) scale(1, 1) translate(-35.840999603271484px, -50.731000900268555px);transform: translate(35.840999603271484px, 50.731000900268555px) scale(1, 1) translate(-35.840999603271484px, -50.731000900268555px);}100%{-webkit-transform: translate(35.840999603271484px, 50.731000900268555px) scale(1, 1) translate(-35.840999603271484px, -50.731000900268555px);transform: translate(35.840999603271484px, 50.731000900268555px) scale(1, 1) translate(-35.840999603271484px, -50.731000900268555px);}}@keyframes el_HkmbS3lJ0jm_SkEAg1CjQ_Animation{0%{-webkit-transform: translate(35.840999603271484px, 50.731000900268555px) scale(1, 1) translate(-35.840999603271484px, -50.731000900268555px);transform: translate(35.840999603271484px, 50.731000900268555px) scale(1, 1) translate(-35.840999603271484px, -50.731000900268555px);}6.67%{-webkit-transform: translate(35.840999603271484px, 50.731000900268555px) scale(0.5, 0.5) translate(-35.840999603271484px, -50.731000900268555px);transform: translate(35.840999603271484px, 50.731000900268555px) scale(0.5, 0.5) translate(-35.840999603271484px, -50.731000900268555px);}13.33%{-webkit-transform: translate(35.840999603271484px, 50.731000900268555px) scale(1, 1) translate(-35.840999603271484px, -50.731000900268555px);transform: translate(35.840999603271484px, 50.731000900268555px) scale(1, 1) translate(-35.840999603271484px, -50.731000900268555px);}100%{-webkit-transform: translate(35.840999603271484px, 50.731000900268555px) scale(1, 1) translate(-35.840999603271484px, -50.731000900268555px);transform: translate(35.840999603271484px, 50.731000900268555px) scale(1, 1) translate(-35.840999603271484px, -50.731000900268555px);}}@-webkit-keyframes el_HyNbBnl1CoX_Sy8AlyAjm_Animation{0%{-webkit-transform: translate(22.516499519348145px, 50.731000900268555px) scale(1, 1) translate(-22.516499519348145px, -50.731000900268555px);transform: translate(22.516499519348145px, 50.731000900268555px) scale(1, 1) translate(-22.516499519348145px, -50.731000900268555px);}6.67%{-webkit-transform: translate(22.516499519348145px, 50.731000900268555px) scale(0.5, 0.5) translate(-22.516499519348145px, -50.731000900268555px);transform: translate(22.516499519348145px, 50.731000900268555px) scale(0.5, 0.5) translate(-22.516499519348145px, -50.731000900268555px);}13.33%{-webkit-transform: translate(22.516499519348145px, 50.731000900268555px) scale(1, 1) translate(-22.516499519348145px, -50.731000900268555px);transform: translate(22.516499519348145px, 50.731000900268555px) scale(1, 1) translate(-22.516499519348145px, -50.731000900268555px);}100%{-webkit-transform: translate(22.516499519348145px, 50.731000900268555px) scale(1, 1) translate(-22.516499519348145px, -50.731000900268555px);transform: translate(22.516499519348145px, 50.731000900268555px) scale(1, 1) translate(-22.516499519348145px, -50.731000900268555px);}}@keyframes el_HyNbBnl1CoX_Sy8AlyAjm_Animation{0%{-webkit-transform: translate(22.516499519348145px, 50.731000900268555px) scale(1, 1) translate(-22.516499519348145px, -50.731000900268555px);transform: translate(22.516499519348145px, 50.731000900268555px) scale(1, 1) translate(-22.516499519348145px, -50.731000900268555px);}6.67%{-webkit-transform: translate(22.516499519348145px, 50.731000900268555px) scale(0.5, 0.5) translate(-22.516499519348145px, -50.731000900268555px);transform: translate(22.516499519348145px, 50.731000900268555px) scale(0.5, 0.5) translate(-22.516499519348145px, -50.731000900268555px);}13.33%{-webkit-transform: translate(22.516499519348145px, 50.731000900268555px) scale(1, 1) translate(-22.516499519348145px, -50.731000900268555px);transform: translate(22.516499519348145px, 50.731000900268555px) scale(1, 1) translate(-22.516499519348145px, -50.731000900268555px);}100%{-webkit-transform: translate(22.516499519348145px, 50.731000900268555px) scale(1, 1) translate(-22.516499519348145px, -50.731000900268555px);transform: translate(22.516499519348145px, 50.731000900268555px) scale(1, 1) translate(-22.516499519348145px, -50.731000900268555px);}}#el_Hy7xr2xJAim *{-webkit-animation-duration: 3s;animation-duration: 3s;-webkit-animation-iteration-count: infinite;animation-iteration-count: infinite;-webkit-animation-play-state: running;animation-play-state: running;-webkit-animation-timing-function: cubic-bezier(0, 0, 1, 1);animation-timing-function: cubic-bezier(0, 0, 1, 1);}#el_H1ExBhlyAi7{fill: #BBE1F2;}#el_ryrlB2e1Rom{fill: #E6A671;}#el_rJIgrhekRjm{-webkit-transform: matrix(-0.1443, -0.9895, 0.9895, -0.1443, -49.045, 55.0537);transform: matrix(-0.1443, -0.9895, 0.9895, -0.1443, -49.045, 55.0537);fill: #FFC08D;}#el_BkDlH3gkRjQ{-webkit-transform: matrix(0.1443, -0.9895, 0.9895, 0.1443, 3.9425, 102.023);transform: matrix(0.1443, -0.9895, 0.9895, 0.1443, 3.9425, 102.023);fill: #FFC08D;}#el_BkKxrhxy0j7{fill: #050203;}#el_BJcxH3eJCsX{fill: #FFEF00;}#el_SkolHhxyAsQ{fill: #76E8FA;}#el_Hy3xBhl1Rim{fill: #FFC08D;}#el_HJTgHnxyRim{fill: #FFC08D;}#el_HyAerhly0oX{fill: #050203;}#el_HJ1-H3eyCsm{fill: #D49460;}#el_BJe-B3eJRjX{opacity: 0.5;fill: #F04989;}#el_r1-WrhlyAoQ{fill: #FFFFFF;}#el_HkmbS3lJ0jm{fill: #383737;}#el_HyNbBnl1CoX{fill: #383737;}#el_SkrZr2lyAjX{fill: #050203;}#el_rJPWHnlkAim{fill: none;stroke: #020001;stroke-width: 1.9199;}#el_ryOZBneJRj7{fill: none;stroke: #020001;stroke-width: 1.9199;}#el_BJ5bS3lyCjm{opacity: 0.2;fill: #F04989;}#el_H1sbr3eyAsX{opacity: 0.2;fill: #F04989;}#el_Sy6ZSnxJRi7{fill: #3F85AB;}#el_ry0Wr2ekAiX{fill: #3F85AB;}#el_Sykzrhe1RjQ{fill: #3F85AB;}#el_BJlMH3lkRiX{fill: #29698C;}#el_BJmzB3gkAoQ{fill: #29698C;}#el_ryNfShl1CoQ{fill: #3F85AB;}#el_H1UfBhlyRoX{fill: #29698C;}#el_B1DfrhgJAjQ{fill: #3F85AB;}#el_HyNbBnl1CoX_Sy8AlyAjm{-webkit-transform: translate(22.516499519348145px, 50.731000900268555px) scale(1, 1) translate(-22.516499519348145px, -50.731000900268555px);transform: translate(22.516499519348145px, 50.731000900268555px) scale(1, 1) translate(-22.516499519348145px, -50.731000900268555px);}#el_Hy7xr2xJAim:hover #el_HyNbBnl1CoX_Sy8AlyAjm{-webkit-animation-name: el_HyNbBnl1CoX_Sy8AlyAjm_Animation;animation-name: el_HyNbBnl1CoX_Sy8AlyAjm_Animation;}#el_HkmbS3lJ0jm_SkEAg1CjQ{-webkit-transform: translate(35.840999603271484px, 50.731000900268555px) scale(1, 1) translate(-35.840999603271484px, -50.731000900268555px);transform: translate(35.840999603271484px, 50.731000900268555px) scale(1, 1) translate(-35.840999603271484px, -50.731000900268555px);}#el_Hy7xr2xJAim:hover #el_HkmbS3lJ0jm_SkEAg1CjQ{-webkit-animation-name: el_HkmbS3lJ0jm_SkEAg1CjQ_Animation;animation-name: el_HkmbS3lJ0jm_SkEAg1CjQ_Animation;}#el_r1-WrhlyAoQ_Byxf-1AjX{-webkit-transform: translate(29.644001007080078px, 62.3152961730957px) scale(1, 1) translate(-29.644001007080078px, -62.3152961730957px);transform: translate(29.644001007080078px, 62.3152961730957px) scale(1, 1) translate(-29.644001007080078px, -62.3152961730957px);}#el_Hy7xr2xJAim:hover #el_r1-WrhlyAoQ_Byxf-1AjX{-webkit-animation-name: el_r1-WrhlyAoQ_Byxf-1AjX_Animation;animation-name: el_r1-WrhlyAoQ_Byxf-1AjX_Animation;}</style>
                            <ellipse fill-rule="evenodd" clip-rule="evenodd" cx="29.522" cy="46.901" rx="28.33" ry="46.154" id="el_H1ExBhlyAi7"/>
                            <path display="none" fill-rule="evenodd" clip-rule="evenodd" d="M30.121,64.695L30.121,64.695&#10;&#9;c2.999,0,5.452,3.076,5.452,6.836v8.277c-2.429,3.369-5.929,5.33-10.904,5.351V71.531C24.669,67.771,27.123,64.695,30.121,64.695z" id="el_ryrlB2e1Rom"/>
                            <ellipse display="none" fill-rule="evenodd" clip-rule="evenodd" cx="-0.719" cy="48.732" rx="8.033" ry="4.993" id="el_rJIgrhekRjm"/>
                            <ellipse display="none" fill-rule="evenodd" clip-rule="evenodd" cx="60.961" cy="48.732" rx="8.033" ry="4.993" id="el_BkDlH3gkRjQ"/>
                            <g id="el_rJugB2xkAsm">
                                <path id="el_BkKxrhxy0j7" fill-rule="evenodd" clip-rule="evenodd" d="M29.278,34.678&#10;&#9;&#9;c11.914,0,20.787,5.049,20.787,17.695c0,6.378-4.029,18.704-0.426,21.503c-5.691,11.67-34.708,11.473-39.824,0.85&#10;&#9;&#9;c4.494-2.68-1.129-15.656-1.129-21.937C8.687,40.143,17.363,34.678,29.278,34.678z"/>
                                <path id="el_BJcxH3eJCsX" fill-rule="evenodd" clip-rule="evenodd" d="M29.277,75.583c7.017,0,12.938,4.102,14.833,9.725&#10;&#9;&#9;H14.444C16.339,79.685,22.263,75.583,29.277,75.583z"/>
                                <rect id="el_SkolHhxyAsQ" x="25.836" y="75.921" fill-rule="evenodd" clip-rule="evenodd" width="6.883" height="9.387"/>
                                <path id="el_Hy3xBhl1Rim" fill-rule="evenodd" clip-rule="evenodd" d="M29.277,61.118L29.277,61.118&#10;&#9;&#9;c1.894,0,3.442,1.643,3.442,3.648v10.967c0,2.006-1.549,3.648-3.442,3.648l0,0c-1.893,0-3.441-1.643-3.441-3.648V64.767&#10;&#9;&#9;C25.836,62.761,27.384,61.118,29.277,61.118z"/>
                                <path id="el_HJTgHnxyRim" fill-rule="evenodd" clip-rule="evenodd" d="M29.277,26.223&#10;&#9;&#9;c12.679-0.684,18.112,10.431,18.112,23.298c0,12.868-9.473,23.3-18.112,23.3c-8.639,0-18.111-10.432-18.111-23.3&#10;&#9;&#9;C11.166,36.654,16.598,26.906,29.277,26.223z"/>
                                <path id="el_HyAerhly0oX" fill-rule="evenodd" clip-rule="evenodd" d="M49.793,52.258&#10;&#9;&#9;c-3.729,0.471-4.857-3.424-5.957-12.172c-1.021-8.123-9.047-6.527-14.833-6.527c-8.383,0-11.217-0.807-13.172,6.324&#10;&#9;&#9;c-1.196,4.361-1.625,12.553-6.817,12.625c-1.137-15.477,4.932-26.665,20.349-26.665C44.78,25.843,51.094,37.676,49.793,52.258z"/>
                                <path id="el_HJ1-H3eyCsm" fill-rule="evenodd" clip-rule="evenodd" d="M27.808,57.463c3.382,0.634,4.757-1.869,3.983-4.023&#10;&#9;&#9;C33.397,56.75,31.895,59.083,27.808,57.463z"/>
                                <path id="el_BJe-B3eJRjX" fill-rule="evenodd" clip-rule="evenodd" d="M21.666,60.644&#10;&#9;&#9;c1.767-0.303,4.175-0.908,6.586-0.945c0.569-0.01,1.054,0.195,1.627,0.199c0.546,0.004,1.183-0.193,1.723-0.178&#10;&#9;&#9;c2.273,0.064,4.352,0.676,6.02,0.924C35.481,66.929,24.54,67.505,21.666,60.644z"/>
                                <g id="el_r1-WrhlyAoQ_Byxf-1AjX" data-animator-group="true" data-animator-type="2"><path id="el_r1-WrhlyAoQ" fill-rule="evenodd" clip-rule="evenodd" d="M22.36,61.04c3.884-0.42,10.699-0.361,14.568,0&#10;&#9;&#9;C34.975,64.663,24.984,64.997,22.36,61.04z"/></g>
                                <g id="el_Byz-S3x1Asm">
                                    <g id="el_HkmbS3lJ0jm_SkEAg1CjQ" data-animator-group="true" data-animator-type="2"><path id="el_HkmbS3lJ0jm" fill-rule="evenodd" clip-rule="evenodd" d="M35.84,52.832c0.652,0,1.186-0.943,1.186-2.102&#10;&#9;&#9;&#9;c0-1.156-0.533-2.1-1.186-2.1s-1.184,0.943-1.184,2.1C34.657,51.889,35.188,52.832,35.84,52.832z"/></g>
                                    <g id="el_HyNbBnl1CoX_Sy8AlyAjm" data-animator-group="true" data-animator-type="2"><path id="el_HyNbBnl1CoX" fill-rule="evenodd" clip-rule="evenodd" d="M22.517,52.832c0.652,0,1.185-0.943,1.185-2.102&#10;&#9;&#9;&#9;c0-1.156-0.533-2.1-1.185-2.1c-0.653,0-1.186,0.943-1.186,2.1C21.332,51.889,21.864,52.832,22.517,52.832z"/></g>
                                </g>
                                <path id="el_SkrZr2lyAjX" fill-rule="evenodd" clip-rule="evenodd" d="M46.44,48.41c-1.77-1.801-4.359-4.395-7.107-5.379&#10;&#9;&#9;c-0.617-3.398-1.998-6.711-3.223-8.924c0.768,2.158,1.506,5.254,1.643,8.414c-5.369-1.545-11.764-1.604-17.303-0.033&#10;&#9;&#9;c0.14-3.148,0.877-6.23,1.64-8.381c-1.218,2.203-2.592,5.496-3.212,8.879c-2.635,0.928-5.02,2.252-6.93,3.99&#10;&#9;&#9;c1.77-11.357,5.804-17.79,15.842-18.105C37.827,28.555,48.043,36.49,46.44,48.41z"/>
                                <g id="el_HJIWS3ly0iX">
                                    
                                        <path id="el_rJPWHnlkAim" fill-rule="evenodd" clip-rule="evenodd" stroke-linecap="round" stroke-linejoin="round" stroke-miterlimit="22.9256" d="&#10;&#9;&#9;&#9;M20.105,46.896c1.534-1.037,3.577-1.148,5.365-0.063"/>
                                    
                                        <path id="el_ryOZBneJRj7" fill-rule="evenodd" clip-rule="evenodd" stroke-linecap="round" stroke-linejoin="round" stroke-miterlimit="22.9256" d="&#10;&#9;&#9;&#9;M38.45,46.896c-1.398-1.502-3.453-1.512-5.365-0.063"/>
                                </g>
                                <g id="el_SJYbH2l1CoQ">
                                    <path id="el_BJ5bS3lyCjm" fill-rule="evenodd" clip-rule="evenodd" d="M37.459,53.643&#10;&#9;&#9;&#9;c1.146,0,2.074,0.678,2.074,1.514c0,0.834-0.928,1.512-2.074,1.512c-1.148,0-2.076-0.678-2.076-1.512&#10;&#9;&#9;&#9;C35.383,54.32,36.311,53.643,37.459,53.643z"/>
                                    
                                        <ellipse id="el_H1sbr3eyAsX" fill-rule="evenodd" clip-rule="evenodd" cx="21.096" cy="55.155" rx="2.076" ry="1.513"/>
                                </g>
                                <g id="el_BJ3-Bhg10sm">
                                    <path id="el_Sy6ZSnxJRi7" fill-rule="evenodd" clip-rule="evenodd" d="M9.89,46.133&#10;&#9;&#9;&#9;c-0.317-3.225-0.432-8.453,2.022-12.926c2.471-4.502,7.485-8.184,17.368-8.184v1.705c-9.151,0-13.73,3.292-15.94,7.319&#10;&#9;&#9;&#9;c-2.227,4.057-2.112,8.916-1.817,11.92L9.89,46.133z"/>
                                    <path id="el_ry0Wr2ekAiX" fill-rule="evenodd" clip-rule="evenodd" d="M47.036,45.967&#10;&#9;&#9;&#9;c0.297-3.004,0.412-7.863-1.814-11.92c-2.211-4.027-6.791-7.319-15.941-7.319v-1.705c9.882,0,14.896,3.682,17.367,8.184&#10;&#9;&#9;&#9;c2.455,4.473,2.34,9.701,2.023,12.926L47.036,45.967z"/>
                                    <path id="el_Sykzrhe1RjQ" fill-rule="evenodd" clip-rule="evenodd" d="M47.618,55.168c-0.227,1.695-0.732,5.423-3.277,8.772&#10;&#9;&#9;&#9;c-2.539,3.342-7.074,6.27-15.301,6.314l-0.006-1.697c7.604-0.043,11.735-2.67,14.015-5.67c2.275-2.992,2.736-6.397,2.941-7.946&#10;&#9;&#9;&#9;L47.618,55.168z"/>
                                    <path id="el_BJlMH3lkRiX" fill-rule="evenodd" clip-rule="evenodd" d="M28.133,67.339h3.293&#10;&#9;&#9;&#9;c0.9,0,1.639,0.781,1.639,1.734l0,0c0,0.955-0.738,1.736-1.639,1.736h-3.293c-0.9,0-1.637-0.781-1.637-1.736l0,0&#10;&#9;&#9;&#9;C26.496,68.12,27.232,67.339,28.133,67.339z"/>
                                    <g id="el_Hy-zS3gkRsQ">
                                        <g id="el_ByfGH3ekAs7">
                                            <polygon fill-rule="evenodd" clip-rule="evenodd" points="11.495,45.311 9.76,45.533 11.179,57.512 &#10;&#9;&#9;&#9;&#9;&#9;12.914,57.291 &#9;&#9;&#9;&#9;" id="el_BJmzB3gkAoQ"/>
                                            <path fill-rule="evenodd" clip-rule="evenodd" d="M11.179,57.512c-2.978,0.378-5.71-1.998-6.102-5.305&#10;&#9;&#9;&#9;&#9;&#9;c-0.392-3.309,1.705-6.297,4.683-6.674L11.179,57.512z" id="el_ryNfShl1CoQ"/>
                                        </g>
                                        <g id="el_H1BGrhlJCoX">
                                            <polygon fill-rule="evenodd" clip-rule="evenodd" points="47.059,45.311 48.795,45.533 47.377,57.512 &#10;&#9;&#9;&#9;&#9;&#9;45.641,57.291 &#9;&#9;&#9;&#9;" id="el_H1UfBhlyRoX"/>
                                            <path fill-rule="evenodd" clip-rule="evenodd" d="M47.377,57.512c2.977,0.378,5.709-1.998,6.102-5.305&#10;&#9;&#9;&#9;&#9;&#9;c0.393-3.309-1.707-6.297-4.684-6.674L47.377,57.512z" id="el_B1DfrhgJAjQ"/>
                                        </g>
                                    </g>
                                </g>
                            </g>
                        </svg>